<?xml version="1.0" encoding="UTF-8"?>
<svg width="556px" height="377px" viewBox="0 0 556 377" version="1.1" xmlns="http://www.w3.org/2000/svg" xmlns:xlink="http://www.w3.org/1999/xlink">
    <!-- Generator: Sketch 50.2 (55047) - http://www.bohemiancoding.com/sketch -->
    <title>Illustration</title>
    <desc>Created with Sketch.</desc>
    <defs></defs>
    <g id="What-the-Lunch" stroke="none" stroke-width="1" fill="none" fill-rule="evenodd">
        <g id="WTL---Landing" transform="translate(-703.000000, -101.000000)">
            <g id="Illustration" transform="translate(703.000000, 101.000000)">
                <ellipse id="Oval" fill="#220052" fill-rule="nonzero" opacity="0.0800000057" cx="41.4024558" cy="263.923085" rx="29.170354" ry="10.3829787"></ellipse>
                <ellipse id="Oval" fill="#220052" fill-rule="nonzero" opacity="0.0800000057" cx="512.652765" cy="306.850213" rx="29.170354" ry="10.3829787"></ellipse>
                <path d="M343.715071,10.5531233 C304.545712,25.6985387 262.087453,26.4028435 222.649262,12.1449666 C166.755136,-8.05655529 93.7587333,-13.2271829 66.7096825,79.3459476 C20.5449776,237.505312 114.990722,293.958488 114.990722,293.958488 C114.990722,293.958488 180.928861,308.754614 217.438502,335.489564 C269.300152,373.464761 332.813086,386.159425 392.642452,368.351394 C430.902359,356.96227 463.694114,338.278153 473.068906,307.706746 C499.288582,222.205293 482.643893,170.81395 530.095558,148.270471 C577.547224,125.726993 551.144513,42.2124812 517.397547,40.317157 C483.650582,38.4218328 404.145019,57.7930768 379.549773,19.2624529 C370.781282,5.58290762 357.368293,5.2679746 343.715071,10.5531233 Z" id="Shape" fill="#FB2F51" fill-rule="nonzero" opacity="0.0399999991"></path>
                <path d="M511.472987,308.323298 C511.472987,308.323298 519.251748,281.820745 510.007987,262.313723 C506.071256,254.156697 504.883913,244.941351 506.624226,236.051277 C507.483467,231.836378 508.726787,227.709186 510.338584,223.721489" id="Shape" stroke="#220052" stroke-width="2"></path>
                <path d="M504.582301,211.398191 C504.582301,214.642872 510.455265,224.065426 510.455265,224.065426 C510.455265,224.065426 516.32823,214.649362 516.32823,211.398191 C516.32823,208.149318 513.697363,205.515585 510.452024,205.515585 C507.206686,205.515585 504.575819,208.149318 504.575819,211.398191 L504.582301,211.398191 Z" id="Shape" fill="#00C79B" fill-rule="nonzero"></path>
                <path d="M494.871814,229.393191 C496.635,232.118723 506.682566,236.83 506.682566,236.83 C506.682566,236.83 506.501062,225.726702 504.737876,223.00117 C503.597294,221.238007 501.60374,220.217934 499.508166,220.325202 C497.412593,220.432469 495.533367,221.650782 494.578376,223.521212 C493.623385,225.391643 493.737714,227.630029 494.878296,229.393191 L494.871814,229.393191 Z" id="Shape" fill="#00C79B" fill-rule="nonzero"></path>
                <path d="M495.293164,260.133298 C498.190752,261.593404 509.236593,260.587553 509.236593,260.587553 C509.236593,260.587553 503.48031,251.093617 500.582721,249.633511 C497.68644,248.171249 494.154432,249.336308 492.693761,252.235745 C491.23309,255.135181 492.396882,258.671036 495.293164,260.133298 Z" id="Shape" fill="#00C79B" fill-rule="nonzero"></path>
                <path d="M500.848496,283.326277 C503.441416,285.273085 514.513186,286.129681 514.513186,286.129681 C514.513186,286.129681 510.442301,275.798617 507.836416,273.871277 C505.228331,271.939514 501.549761,272.490085 499.6201,275.101011 C497.690439,277.711937 498.240411,281.394514 500.848496,283.326277 Z" id="Shape" fill="#00C79B" fill-rule="nonzero"></path>
                <path d="M519.011903,237.459468 C516.684757,239.724255 505.839867,242.066915 505.839867,242.066915 C505.839867,242.066915 508.497611,231.288085 510.824757,229.023298 C513.151806,226.760018 516.871007,226.813768 519.131825,229.143351 C521.392643,231.472935 521.338952,235.196187 519.011903,237.459468 Z" id="Shape" fill="#00C79B" fill-rule="nonzero"></path>
                <path d="M525.163606,264.656383 C522.266018,266.116489 511.220177,265.110638 511.220177,265.110638 C511.220177,265.110638 516.97646,255.616702 519.874049,254.189043 C522.77033,252.726781 526.302338,253.891841 527.763008,256.791277 C529.223679,259.690713 528.059887,263.226568 525.163606,264.68883 L525.163606,264.656383 Z" id="Shape" fill="#00C79B" fill-rule="nonzero"></path>
                <path d="M527.516681,291.918191 C524.923761,293.865 513.851991,294.721596 513.851991,294.721596 C513.851991,294.721596 517.922876,284.390532 520.528761,282.463191 C523.136846,280.531429 526.815416,281.082 528.745077,283.692926 C530.674738,286.303852 530.124766,289.986429 527.516681,291.918191 Z" id="Shape" fill="#00C79B" fill-rule="nonzero"></path>
                <path d="M41.4154204,264.000957 C41.4154204,264.000957 58.0684513,207.465638 38.3039159,165.803936 C30.0065708,148.328085 27.2840044,128.717234 31.089115,109.755319 C32.9235023,100.762021 35.5772149,91.9559143 39.016969,83.4474468" id="Shape" stroke="#220052" stroke-width="2"></path>
                <path d="M26.7200442,57.1330851 C26.7200442,64.0637234 39.2568142,84.167766 39.2568142,84.167766 C39.2568142,84.167766 51.7871018,64.0507447 51.7871018,57.1330851 C51.7871018,50.2016765 46.1741987,44.5826596 39.2503319,44.5826596 C32.326465,44.5826596 26.7135619,50.2016765 26.7135619,57.1330851 L26.7200442,57.1330851 Z" id="Shape" fill="#00C79B" fill-rule="nonzero"></path>
                <path d="M5.99612832,95.5306383 C9.76234513,101.371064 31.1993142,111.403617 31.1993142,111.403617 C31.1993142,111.403617 30.8103761,87.7044681 27.0441593,81.89 C23.2123953,76.2565418 15.5898989,74.7140603 9.87327901,78.4153162 C4.15665913,82.1165722 2.43551456,89.7086437 5.99612832,95.5176596 L5.99612832,95.5306383 Z" id="Shape" fill="#00C79B" fill-rule="nonzero"></path>
                <path d="M6.89716814,161.151064 C13.0812832,164.272447 36.6574115,162.117979 36.6574115,162.117979 C36.6574115,162.117979 24.3410398,141.858191 18.1893363,138.756277 C14.1897717,136.736928 9.41788411,137.007039 5.67119733,139.464862 C1.92451056,141.922685 -0.227764531,146.194818 0.0251132612,150.67199 C0.277991054,155.149162 2.89760357,159.151183 6.89716814,161.170532 L6.89716814,161.151064 Z" id="Shape" fill="#00C79B" fill-rule="nonzero"></path>
                <path d="M18.7273673,210.645426 C24.2956637,214.76617 47.8977212,216.628617 47.8977212,216.628617 C47.8977212,216.628617 39.2114381,194.564787 33.6366593,190.463511 C28.0696412,186.341939 20.2191227,187.51862 16.1020354,193.091702 C11.9849481,198.664784 13.1603492,206.523854 18.7273673,210.645426 Z" id="Shape" fill="#00C79B" fill-rule="nonzero"></path>
                <path d="M57.5239381,112.720957 C52.5584956,117.549043 29.4166814,122.55234 29.4166814,122.55234 C29.4166814,122.55234 35.0822124,99.5410638 40.0476549,94.7129787 C45.0150102,89.8746118 52.959851,89.9835638 57.7929535,94.9563298 C62.626056,99.9290958 62.5172226,107.882591 57.5498673,112.720957 L57.5239381,112.720957 Z" id="Shape" fill="#00C79B" fill-rule="nonzero"></path>
                <path d="M70.6505973,170.807234 C64.4664823,173.928617 40.890354,171.774149 40.890354,171.774149 C40.890354,171.774149 53.2067257,151.514362 59.3584292,148.412447 C63.3579938,146.393098 68.1298814,146.663209 71.8765683,149.121032 C75.6232551,151.578855 77.7755302,155.850988 77.5226524,160.32816 C77.2697746,164.805332 74.650162,168.807353 70.6505973,170.826702 L70.6505973,170.807234 Z" id="Shape" fill="#00C79B" fill-rule="nonzero"></path>
                <path d="M75.6743805,228.990851 C70.1060841,233.111596 46.5040265,234.974043 46.5040265,234.974043 C46.5040265,234.974043 55.1903097,212.910213 60.7650885,208.808936 C66.3321066,204.687365 74.1826249,205.864046 78.2997121,211.437128 C82.4167993,217.01021 81.2413984,224.869279 75.6743805,228.990851 Z" id="Shape" fill="#00C79B" fill-rule="nonzero"></path>
                <path d="M245.776438,124.544574 L209.650575,119.859255 C208.185575,119.671064 207.057655,119.112979 207.096549,118.626277 C207.161372,118.139574 208.393009,117.912447 209.89042,118.126596 L245.938496,123.350532 C246.930288,123.493298 247.682235,123.869681 247.636858,124.200638 C247.591482,124.512128 246.761748,124.674362 245.776438,124.544574 Z" id="Shape" fill="#220052" fill-rule="nonzero"></path>
                <path d="M246.003319,125.161064 L209.767257,121.410213 C208.295774,121.260957 207.04469,121.533511 206.999314,122.020213 C206.953938,122.506915 208.127235,123.019574 209.592235,123.149362 L245.893119,126.394043 C246.891394,126.484894 247.708164,126.290213 247.740575,125.959255 C247.766504,125.60883 246.995111,125.264894 246.003319,125.161064 Z" id="Shape" fill="#220052" fill-rule="nonzero"></path>
                <path d="M300.363894,152.44883 L336.483274,147.763511 C337.948274,147.575319 339.076195,147.017234 339.037301,146.530532 C338.972478,146.04383 337.740841,145.816702 336.243429,146.030851 L300.195354,151.254787 C299.203562,151.397553 298.451615,151.773936 298.496991,152.104894 C298.542367,152.416383 299.372102,152.578617 300.363894,152.44883 Z" id="Shape" fill="#220052" fill-rule="nonzero"></path>
                <path d="M300.130531,153.065319 L336.366593,149.314468 C337.838075,149.165213 339.089159,149.437766 339.134535,149.924468 C339.179912,150.41117 338.006615,150.92383 336.541615,151.053617 L300.24073,154.298298 C299.242456,154.389149 298.425686,154.194468 298.393274,153.863511 C298.367345,153.513085 299.138739,153.169149 300.130531,153.065319 Z" id="Shape" fill="#220052" fill-rule="nonzero"></path>
                <rect id="Rectangle-path" fill="#40414D" fill-rule="nonzero" x="172.066195" y="191.28766" width="8.8094469" height="126.451702"></rect>
                <rect id="Rectangle-path" fill="#40414D" fill-rule="nonzero" x="364.47385" y="191.28766" width="8.8094469" height="126.451702"></rect>
                <path d="M168.701881,180.995532 L372.246128,180.995532 C380.122295,180.995532 386.50719,187.387382 386.50719,195.272128 L386.50719,197.167021 L154.440819,197.167021 L154.440819,195.272128 C154.440819,187.387382 160.825714,180.995532 168.701881,180.995532 Z" id="Shape" fill="#DFE6F5" fill-rule="nonzero"></path>
                <path d="M168.05365,180.995532 L371.597898,180.995532 C379.474065,180.995532 385.85896,187.387382 385.85896,195.272128 L385.85896,197.167021 L153.792588,197.167021 L153.792588,195.272128 C153.792588,187.387382 160.177483,180.995532 168.05365,180.995532 Z" id="Shape" fill="#000000" fill-rule="nonzero" opacity="0.1"></path>
                <path d="M168.701881,178.049362 L372.246128,178.049362 C380.122295,178.049362 386.50719,184.441211 386.50719,192.325957 L386.50719,194.220851 L154.440819,194.220851 L154.440819,192.325957 C154.440819,184.441211 160.825714,178.049362 168.701881,178.049362 Z" id="Shape" fill="#DFE6F5" fill-rule="nonzero"></path>
                <ellipse id="Oval" stroke="#FFAB50" fill="#F4D738" fill-rule="nonzero" cx="270.474004" cy="150.11266" rx="17.6253761" ry="17.6445745"></ellipse>
                <ellipse id="Oval" stroke="#FFAB50" fill="#F4D738" fill-rule="nonzero" cx="270.474004" cy="150.11266" rx="13.9693584" ry="13.9845745"></ellipse>
                <ellipse id="Oval" stroke="#FFAB50" fill="#F4D738" fill-rule="nonzero" cx="270.474004" cy="150.11266" rx="10.6439381" ry="10.6555319"></ellipse>
                <ellipse id="Oval" stroke="#FFAB50" fill="#F4D738" fill-rule="nonzero" cx="270.474004" cy="150.11266" rx="5.98316372" ry="5.98968085"></ellipse>
                <ellipse id="Oval" stroke="#FFAB50" fill="#F4D738" fill-rule="nonzero" cx="260.193075" cy="159.671489" rx="17.6253761" ry="17.6445745"></ellipse>
                <ellipse id="Oval" stroke="#FFAB50" fill="#F4D738" fill-rule="nonzero" cx="260.193075" cy="159.671489" rx="13.9693584" ry="13.9845745"></ellipse>
                <ellipse id="Oval" stroke="#FFAB50" fill="#F4D738" fill-rule="nonzero" cx="260.193075" cy="159.671489" rx="10.6439381" ry="10.6555319"></ellipse>
                <ellipse id="Oval" stroke="#FFAB50" fill="#F4D738" fill-rule="nonzero" cx="260.193075" cy="159.671489" rx="5.98316372" ry="5.98968085"></ellipse>
                <ellipse id="Oval" stroke="#FFAB50" fill="#F4D738" fill-rule="nonzero" cx="280.754934" cy="159.671489" rx="17.6253761" ry="17.6445745"></ellipse>
                <ellipse id="Oval" stroke="#FFAB50" fill="#F4D738" fill-rule="nonzero" cx="280.754934" cy="159.671489" rx="13.9693584" ry="13.9845745"></ellipse>
                <ellipse id="Oval" stroke="#FFAB50" fill="#F4D738" fill-rule="nonzero" cx="280.754934" cy="159.671489" rx="10.6439381" ry="10.6555319"></ellipse>
                <ellipse id="Oval" stroke="#FFAB50" fill="#F4D738" fill-rule="nonzero" cx="280.754934" cy="159.671489" rx="5.98316372" ry="5.98968085"></ellipse>
                <path d="M233.75177,154.531915 L307.189757,154.531915 L307.189757,157.984255 C307.189757,164.868598 304.457938,171.470976 299.595269,176.338942 C294.7326,181.206908 288.137405,183.941702 281.260553,183.941702 L259.680973,183.941702 C245.36067,183.941702 233.75177,172.320157 233.75177,157.984255 L233.75177,154.531915 Z" id="Shape" fill="#220052" fill-rule="nonzero"></path>
                <path d="M300.564845,154.525426 C300.16745,170.472302 287.140985,183.193346 271.206504,183.195426 L256.62781,183.195426 C258.754528,183.681666 260.928639,183.929785 263.110111,183.935213 L277.799004,183.935213 C285.592724,183.938656 293.06841,180.841654 298.580619,175.325876 C304.092827,169.810097 307.189757,162.327635 307.189757,154.525426 L300.564845,154.525426 Z" id="Shape" fill="#000000" fill-rule="nonzero" opacity="0.1"></path>
                <rect id="Rectangle-path" fill="#40414D" fill-rule="nonzero" transform="translate(273.410487, 292.005798) rotate(90.000000) translate(-273.410487, -292.005798) " x="269.005763" y="196.430479" width="8.8094469" height="191.150638"></rect>
                <rect id="Rectangle-path" fill="#40414D" fill-rule="nonzero" x="98.6411726" y="256.797766" width="7.70745575" height="70.2019149"></rect>
                <rect id="Rectangle-path" fill="#40414D" fill-rule="nonzero" x="159.51646" y="256.797766" width="7.70745575" height="70.2019149"></rect>
                <path d="M173.395066,245.227234 C173.395066,249.912553 157.526394,253.715319 137.949845,253.715319 C118.373296,253.715319 103.276018,249.919043 103.276018,245.227234 C103.276018,240.535426 118.373296,236.739149 137.949845,236.739149 C157.526394,236.739149 173.395066,240.561383 173.395066,245.227234 Z" id="Shape" fill="#F6C6CD" fill-rule="nonzero"></path>
                <path d="M92.4765044,245.220745 L173.388584,245.220745 L173.388584,252.294149 C173.388584,256.057323 170.341248,259.107979 166.582168,259.107979 L104.144646,259.107979 C97.7005094,259.107979 92.4765044,253.878284 92.4765044,247.427128 L92.4765044,245.220745 Z" id="Shape" fill="#40414D" fill-rule="nonzero"></path>
                <path d="M89.3188175,162.681806 L91.030145,162.681806 C93.5361981,162.681806 95.5677556,164.715576 95.5677556,167.224359 L95.5677556,259.100742 L92.9748352,259.100742 C88.4424591,259.100742 84.7682423,255.422523 84.7682423,250.88521 L84.7682423,167.224359 C84.7682374,166.017347 85.248085,164.859959 86.1018581,164.007691 C86.9556312,163.155423 88.1131237,162.678357 89.3188175,162.681806 Z" id="Shape" fill="#40414D" fill-rule="nonzero" transform="translate(90.167999, 210.891264) rotate(-12.720000) translate(-90.167999, -210.891264) "></path>
                <rect id="Rectangle-path" fill="#40414D" fill-rule="nonzero" transform="translate(439.743086, 293.144681) rotate(-180.000000) translate(-439.743086, -293.144681) " x="435.889358" y="258.043723" width="7.70745575" height="70.2019149"></rect>
                <rect id="Rectangle-path" fill="#40414D" fill-rule="nonzero" transform="translate(378.867799, 293.144681) rotate(-180.000000) translate(-378.867799, -293.144681) " x="375.014071" y="258.043723" width="7.70745575" height="70.2019149"></rect>
                <path d="M368.855885,246.473191 C368.855885,251.158511 384.724558,254.961277 404.301106,254.961277 C423.877655,254.961277 438.974934,251.165 438.974934,246.473191 C438.974934,241.781383 423.871173,237.965638 404.301106,237.965638 C384.73104,237.965638 368.855885,241.787872 368.855885,246.473191 Z" id="Shape" fill="#F6C6CD" fill-rule="nonzero"></path>
                <path d="M380.517544,246.473191 L442.955066,246.473191 C446.714146,246.473191 449.761482,249.523847 449.761482,253.287021 L449.761482,260.360426 L368.849403,260.360426 L368.849403,258.154043 C368.849403,251.702887 374.073408,246.473191 380.517544,246.473191 Z" id="Shape" fill="#40414D" fill-rule="nonzero" transform="translate(409.305442, 253.416809) rotate(-180.000000) translate(-409.305442, -253.416809) "></path>
                <path d="M454.876839,163.913049 L457.46976,163.913049 L457.46976,255.802411 C457.46976,258.311193 455.438202,260.344964 452.932149,260.344964 L451.220822,260.344964 C448.714769,260.344964 446.683211,258.311193 446.683211,255.802411 L446.683211,172.128581 C446.683205,167.596332 450.349527,163.920209 454.876839,163.913049 Z" id="Shape" fill="#40414D" fill-rule="nonzero" transform="translate(452.076485, 212.129006) rotate(-167.280000) translate(-452.076485, -212.129006) "></path>
                <path d="M390.163208,294.650213 C390.163208,294.650213 391.881018,313.579681 383.285487,315.876915 C374.689956,318.174149 382.715044,327.350106 389.586283,325.610957 C396.457522,323.871809 421.680155,314.70883 423.397965,300.951383 C425.115774,287.193936 406.206903,282.592979 406.206903,282.592979 L390.163208,294.650213 Z" id="Shape" fill="#B8616E" fill-rule="nonzero"></path>
                <path d="M390.163208,294.650213 C390.163208,294.650213 391.881018,313.579681 383.285487,315.876915 C374.689956,318.174149 382.715044,327.350106 389.586283,325.610957 C396.457522,323.871809 421.680155,314.70883 423.397965,300.951383 C425.115774,287.193936 406.206903,282.592979 406.206903,282.592979 L390.163208,294.650213 Z" id="Shape" fill="#000000" fill-rule="nonzero" opacity="0.05"></path>
                <path d="M393.618274,295.221277 C393.618274,295.221277 395.336084,314.150745 386.740553,316.447979 C378.145022,318.745213 386.170111,327.92117 393.04135,326.182021 C399.912588,324.442872 425.135221,315.279894 426.853031,301.522447 C428.570841,287.765 409.661969,283.164043 409.661969,283.164043 L393.618274,295.221277 Z" id="Shape" fill="#B8616E" fill-rule="nonzero"></path>
                <path d="M411.379779,283.748085 L395.349049,295.79883 C395.349049,295.79883 395.420354,296.616489 395.46573,297.920851 C401.520199,296.259574 414.711681,291.846809 414.912633,284.942128 C413.759961,284.473652 412.580218,284.07492 411.379779,283.748085 Z" id="Shape" fill="#000000" fill-rule="nonzero" opacity="0.1"></path>
                <rect id="Rectangle-path" fill="#F8BDC5" fill-rule="nonzero" x="394.473938" y="118.807979" width="6.87772124" height="5.16553191"></rect>
                <path d="M394.765642,202.274149 C394.765642,202.274149 383.842965,210.866064 374.87146,212.903723 C369.537273,214.059324 364.36624,215.870612 359.475996,218.296383 L338.842832,228.79617 C335.03522,230.713709 332.461623,234.436534 332.010487,238.679468 C331.420597,244.519894 333.76719,252.203298 347.76896,256.771809 L391.893982,293.488617 L405.649425,282.015426 L358.659226,245.88266 L394.765642,223.50734 L394.765642,202.274149 Z" id="Shape" fill="#758AC8" fill-rule="nonzero"></path>
                <path d="M394.765642,202.274149 C394.765642,202.274149 383.842965,210.866064 374.87146,212.903723 C369.537273,214.059324 364.36624,215.870612 359.475996,218.296383 L338.842832,228.79617 C335.03522,230.713709 332.461623,234.436534 332.010487,238.679468 C331.420597,244.519894 333.76719,252.203298 347.76896,256.771809 L391.893982,293.488617 L405.649425,282.015426 L358.659226,245.88266 L394.765642,223.50734 L394.765642,202.274149 Z" id="Shape" fill="#000000" fill-rule="nonzero" opacity="0.1"></path>
                <path d="M388.458363,163.844149 C388.458363,163.844149 367.254757,164.415213 352.351947,152.942021 C337.449137,141.46883 320.835,144.908191 324.270619,151.793404 C327.706239,158.678617 345.474226,164.415213 348.339403,164.986277 C351.20458,165.55734 392.464425,177.037021 392.464425,177.037021 L388.458363,163.844149 Z" id="Shape" fill="#F8BDC5" fill-rule="nonzero"></path>
                <path d="M388.458363,163.844149 C388.458363,163.844149 367.254757,164.415213 352.351947,152.942021 C337.449137,141.46883 320.835,144.908191 324.270619,151.793404 C327.706239,158.678617 345.474226,164.415213 348.339403,164.986277 C351.20458,165.55734 392.464425,177.037021 392.464425,177.037021 L388.458363,163.844149 Z" id="Shape" fill="#000000" fill-rule="nonzero" opacity="0.05"></path>
                <path d="M390.753097,197.121596 L383.875376,217.777234 C383.875376,217.777234 345.195487,241.586702 342.038606,244.740532 C339.588296,247.193511 336.308252,256.791277 347.76896,264.818617 C359.229668,272.845957 390.746615,298.096064 390.746615,298.096064 C390.746615,298.096064 414.815398,292.904574 413.097588,283.170532 L373.555553,254.487553 C373.555553,254.487553 390.746615,239.562021 408.514602,241.865745 C426.282588,244.169468 429.147765,240.717128 429.147765,240.717128 C429.147765,240.717128 442.903208,226.933723 438.313739,213.760319 C433.72427,200.586915 390.753097,197.121596 390.753097,197.121596 Z" id="Shape" fill="#758AC8" fill-rule="nonzero"></path>
                <path d="M382.157566,103.635851 C382.157566,103.635851 401.643363,124.862553 400.495996,131.170213 C399.348628,137.477872 415.969248,112.811809 415.969248,112.811809 C415.969248,112.811809 410.783407,100.19 411.956704,86.4195745 L382.157566,103.635851 Z" id="Shape" fill="#F8BDC5" fill-rule="nonzero"></path>
                <path d="M399.160642,123.103936 C400.489893,121.698919 401.88972,120.362545 403.35469,119.1 C406.286922,116.692773 408.976919,114.004192 411.386261,111.07266 C415.398805,105.88117 430.295133,128.282447 430.295133,128.282447 C430.295133,128.282447 439.461106,138.607021 438.320221,163.279574 C437.179336,187.952128 439.75281,220.937553 439.75281,220.937553 L436.284779,221.904468 C430.362402,223.882941 423.85536,222.957502 418.717743,219.406064 C414.141239,216.239255 408.346062,212.916702 403.938097,212.618191 C395.342566,212.047128 387.602699,207.167128 387.602699,207.167128 C387.602699,207.167128 391.330022,198.276702 385.599668,169.587234 C379.869314,140.897766 394.473938,120.508191 394.473938,120.508191 C394.473938,120.508191 395.627788,126.750957 399.160642,123.103936 Z" id="Shape" fill="#000000" fill-rule="nonzero" opacity="0.1"></path>
                <path d="M441.755841,218.348298 L438.320221,219.496915 L436.278296,220.178298 C430.356014,222.157814 423.848497,221.232307 418.711261,217.679894 C414.141239,214.519574 408.33958,211.190532 403.931615,210.892021 C395.349049,210.314468 385.625597,204.006809 385.625597,204.006809 C385.625597,204.006809 391.355951,196.550532 385.625597,167.861064 C379.895243,139.171596 394.50635,118.807979 394.50635,118.807979 C394.50635,118.807979 395.660199,125.018298 399.193053,121.364787 C400.519508,119.961297 401.917211,118.627051 403.380619,117.36734 C406.312851,114.960113 409.002848,112.271533 411.41219,109.34 C415.424735,104.148511 430.321062,126.549787 430.321062,126.549787 C430.321062,126.549787 439.487035,136.874362 438.34615,161.546915 C438.222987,164.14266 438.171128,166.816277 438.164646,169.52234 C438.080376,192.611489 441.755841,218.348298 441.755841,218.348298 Z" id="Shape" fill="#5E52AD" fill-rule="nonzero"></path>
                <path d="M409.091527,162.124468 L409.661969,174.746277 C409.661969,174.746277 379.285907,176.465957 372.985111,170.158298 C366.684314,163.850638 390.163208,188.711383 395.349049,190.236383 C400.217257,191.670532 412.786438,192.935957 419.378938,193.065745 C423.226764,193.189733 426.785331,191.029366 428.454159,187.556277 C429.222595,185.883617 429.471029,184.018335 429.167212,182.202553 C428.019845,174.746277 429.167212,158.678617 429.167212,158.678617 L409.091527,162.124468 Z" id="Shape" fill="#000000" fill-rule="nonzero" opacity="0.1"></path>
                <path d="M409.091527,160.975851 L409.661969,173.59766 C409.661969,173.59766 379.285907,175.31734 372.985111,169.009681 C366.684314,162.702021 343.886062,164.097234 344.333341,169.009681 C344.618562,172.163511 359.806593,182.202553 368.966084,182.780106 C378.125575,183.35766 390.163208,187.562766 395.349049,189.087766 C400.217257,190.521915 412.786438,191.78734 419.378938,191.917128 C423.226764,192.041116 426.785331,189.880749 428.454159,186.40766 C429.222595,184.735 429.471029,182.869718 429.167212,181.053936 C428.019845,173.59766 429.167212,157.53 429.167212,157.53 L409.091527,160.975851 Z" id="Shape" fill="#F8BDC5" fill-rule="nonzero"></path>
                <path d="M415.969248,124.259043 C415.969248,124.259043 402.79073,125.978723 404.50854,145.485745 C406.22635,164.992766 408.521084,166.712447 408.521084,166.712447 C408.521084,166.712447 428.006881,164.992766 430.295133,164.415213 C432.583385,163.83766 431.4425,142.617447 431.4425,142.617447 C431.4425,142.617447 430.865575,123.687979 415.969248,124.259043 Z" id="Shape" fill="#000000" fill-rule="nonzero" opacity="0.1"></path>
                <path d="M415.969248,123.687979 C415.969248,123.687979 402.79073,125.40766 404.50854,144.914681 C406.22635,164.421702 408.521084,166.141383 408.521084,166.141383 C408.521084,166.141383 428.006881,164.421702 430.295133,163.844149 C432.583385,163.266596 431.4425,142.046383 431.4425,142.046383 C431.4425,142.046383 430.865575,123.103936 415.969248,123.687979 Z" id="Shape" fill="#5E52AD" fill-rule="nonzero"></path>
                <path d="M411.094558,98.7298936 C410.193518,94.1873404 412.040973,92.7856383 412.527146,86.9711702 L382.708562,104.180957 C382.708562,104.180957 386.124735,107.905851 390.007633,112.688511 C391.742923,113.127876 393.526726,113.345915 395.316637,113.337447 C403.12781,113.369894 407.399646,104.97266 411.094558,98.7298936 Z" id="Shape" fill="#000000" fill-rule="nonzero" opacity="0.1"></path>
                <ellipse id="Oval" fill="#F8BDC5" fill-rule="nonzero" cx="394.759159" cy="91.5591489" rx="21.2036062" ry="21.2267021"></ellipse>
                <path d="M400.107058,84.5376596 C396.865907,86.6012766 396.820531,91.2671277 398.907832,94.4988298 C400.995133,97.7305319 404.59281,99.8655319 408.054358,101.877234 C409.059115,102.461277 410.167588,103.064787 411.295509,102.935 C412.16267,102.765816 412.965985,102.359228 413.616173,101.760426 C416.038552,99.8683013 418.350078,97.8380965 420.53927,95.6798936 C423.689668,92.5779787 426.716903,88.7557447 426.224248,84.4273404 C425.66677,79.5148936 420.818009,75.8159574 418.860354,71.1630851 C417.21385,67.2694681 417.706504,62.9021277 416.267434,58.9241489 C414.828363,54.9461702 409.785133,51.2667021 406.012434,53.3497872 C404.618739,54.1155319 403.77604,55.4847872 402.609226,56.5165957 C399.718119,59.0734043 395.057345,59.3264894 391.103142,58.1584043 C387.148938,56.9903191 385.975642,52.2206383 380.459204,52.2076596 C383.201217,53.1745745 385.055155,56.036383 384.633805,58.6451064 C382.423341,59.8975532 379.51927,59.1837234 376.855044,59.1382979 C374.190819,59.0928723 371.020973,60.5854255 371.481217,62.9864894 C371.883119,64.9332979 374.689956,66.3804255 374.275088,68.327234 C369.4056,70.8952677 364.097373,72.5242513 358.626814,73.1293617 C357.635022,73.2396809 364.584049,79.0217021 365.374889,79.4045745 C368.272478,80.7932979 371.753473,81.8121277 374.819602,82.876383 C383.149358,85.7576596 391.680066,86.7635106 400.107058,84.5376596 Z" id="Shape" fill="#916168" fill-rule="nonzero"></path>
                <path d="M425.355619,293.05383 C426.275927,295.178397 426.596546,297.514955 426.282588,299.809255 C424.564779,313.579681 399.348628,322.755638 392.470907,324.46883 C388.847301,325.37734 384.89958,323.255319 383.246593,320.705 C384.30969,323.703085 388.886195,326.655745 393.047832,325.617447 C399.925553,323.897766 425.141704,314.715319 426.859513,300.957872 C427.234897,298.22945 426.706635,295.453056 425.355619,293.05383 Z" id="Shape" fill="#FFFFFF" fill-rule="nonzero" opacity="0.1"></path>
                <path d="M195.603429,292.268617 C195.603429,292.268617 187.824668,302.00266 191.065819,305.896277 C194.306969,309.789894 210.512721,317.233191 215.698562,316.928191 C221.208518,316.603723 239.683075,317.577128 240.331305,309.140957 C240.331305,309.140957 241.627765,305.24734 224.773783,304.598404 C207.919801,303.949468 213.105642,286.428191 213.105642,286.428191 L195.603429,292.268617 Z" id="Shape" fill="#220052" fill-rule="nonzero"></path>
                <path d="M102.906527,210.50266 C102.906527,210.50266 95.1277655,237.109043 118.464049,241.651596 L143.745022,240.353723 C143.745022,240.353723 179.397677,233.215426 189.121128,238.406915 C189.121128,238.406915 193.010509,239.055851 191.714049,244.24734 C190.417588,249.43883 193.658739,284.481383 193.658739,284.481383 L193.658739,296.162234 C193.658739,296.162234 215.698562,296.162234 218.291482,293.566489 C218.291482,293.566489 216.346792,283.183511 218.291482,274.74734 C220.236173,266.31117 215.050332,239.704787 215.050332,239.704787 L214.53823,223.689043 C214.460888,219.659581 212.214761,215.986413 208.665265,214.084787 C207.43845,213.433724 206.073599,213.086576 204.685133,213.072447 C204.685133,213.072447 160.605487,205.934149 145.047965,207.232021 C129.490442,208.529894 102.906527,210.50266 102.906527,210.50266 Z" id="Shape" fill="#000000" fill-rule="nonzero" opacity="0.1"></path>
                <path d="M102.906527,209.853723 C102.906527,209.853723 95.1277655,236.460106 118.464049,241.00266 L143.745022,239.704787 C143.745022,239.704787 179.397677,232.566489 189.121128,237.757979 C189.121128,237.757979 193.010509,238.406915 191.714049,243.598404 C190.417588,248.789894 193.658739,283.832447 193.658739,283.832447 L193.658739,295.513298 C193.658739,295.513298 215.698562,295.513298 218.291482,292.917553 C218.291482,292.917553 216.346792,282.534574 218.291482,274.098404 C220.236173,265.662234 215.050332,239.055851 215.050332,239.055851 L214.53823,223.040106 C214.460888,219.010644 212.214761,215.337477 208.665265,213.435851 C207.43845,212.784788 206.073599,212.43764 204.685133,212.423511 C204.685133,212.423511 160.605487,205.285213 145.047965,206.583085 C129.490442,207.880957 102.906527,209.853723 102.906527,209.853723 Z" id="Shape" fill="#8B9CD1" fill-rule="nonzero"></path>
                <path d="M169.674226,157.289894 C169.674226,157.289894 174.860066,163.779255 178.101217,157.289894 C181.342367,150.800532 188.472898,129.385638 188.472898,129.385638 C188.472898,129.385638 205.975111,110.566489 211.809181,116.406915 C217.643252,122.24734 197.548119,132.630319 197.548119,132.630319 C197.548119,132.630319 190.417588,172.215426 183.935288,172.864362 C177.452987,173.513298 167.729535,172.864362 167.729535,172.864362 L164.488385,165.726064 L169.674226,157.289894 Z" id="Shape" fill="#F8BDC5" fill-rule="nonzero"></path>
                <path d="M169.674226,157.289894 C169.674226,157.289894 174.860066,163.779255 178.101217,157.289894 C181.342367,150.800532 188.472898,129.385638 188.472898,129.385638 C188.472898,129.385638 205.975111,110.566489 211.809181,116.406915 C217.643252,122.24734 197.548119,132.630319 197.548119,132.630319 C197.548119,132.630319 190.417588,172.215426 183.935288,172.864362 C177.452987,173.513298 167.729535,172.864362 167.729535,172.864362 L164.488385,165.726064 L169.674226,157.289894 Z" id="Shape" fill="#000000" fill-rule="nonzero" opacity="0.05"></path>
                <path d="M146.337942,124.843085 C146.337942,124.843085 158.006084,138.470745 159.302544,143.013298 C160.599004,147.555851 174.860066,159.236702 174.860066,159.236702 C174.860066,159.236702 164.488385,167.023936 166.433075,170.917553 C168.377765,174.81117 152.820243,157.93883 152.820243,157.93883 L134.669801,131.332447 L146.337942,124.843085 Z" id="Shape" fill="#EB6475" fill-rule="nonzero"></path>
                <path d="M146.337942,124.843085 C146.337942,124.843085 158.006084,138.470745 159.302544,143.013298 C160.599004,147.555851 174.860066,159.236702 174.860066,159.236702 C174.860066,159.236702 164.488385,167.023936 166.433075,170.917553 C168.377765,174.81117 152.820243,157.93883 152.820243,157.93883 L134.669801,131.332447 L146.337942,124.843085 Z" id="Shape" fill="#000000" fill-rule="nonzero" opacity="0.1"></path>
                <path d="M154.116704,109.268617 C154.116704,109.268617 148.282633,128.087766 148.282633,135.226064 C148.282633,142.364362 123.649889,133.279255 124.298119,129.385638 C124.94635,125.492021 138.559181,111.215426 139.207412,105.375 C139.855642,99.5345745 154.116704,109.268617 154.116704,109.268617 Z" id="Shape" fill="#F8BDC5" fill-rule="nonzero"></path>
                <path d="M134.669801,122.24734 C134.669801,122.24734 111.981748,116.406915 108.740597,149.50266 C105.499447,182.598404 111.333518,186.492021 101.610066,206.609043 C91.886615,226.726064 167.729535,209.204787 167.729535,209.204787 C167.729535,209.204787 163.840155,204.662234 151.523783,206.609043 L145.689712,189.087766 C145.689712,189.087766 143.745022,181.300532 154.764934,181.300532 C165.784845,181.300532 160.599004,158.587766 160.599004,158.587766 C160.599004,158.587766 154.764934,139.119681 151.523783,137.172872 C148.282633,135.226064 142.448562,123.545213 134.669801,122.24734 Z" id="Shape" fill="#000000" fill-rule="nonzero" opacity="0.1"></path>
                <path d="M134.669801,120.949468 C134.669801,120.949468 111.981748,115.109043 108.740597,148.204787 C105.499447,181.300532 111.333518,185.194149 101.610066,205.31117 C91.886615,225.428191 167.729535,207.906915 167.729535,207.906915 C167.729535,207.906915 163.840155,203.364362 151.523783,205.31117 L145.689712,187.789894 C145.689712,187.789894 143.745022,180.00266 154.764934,180.00266 C165.784845,180.00266 160.599004,157.289894 160.599004,157.289894 C160.599004,157.289894 154.764934,137.821809 151.523783,135.875 C148.282633,133.928191 142.448562,122.24734 134.669801,120.949468 Z" id="Shape" fill="#EB6475" fill-rule="nonzero"></path>
                <path d="M157.357854,167.672872 C157.357854,167.672872 204.67865,172.864362 212.457412,171.566489 C212.457412,171.566489 247.202544,167.283511 238.386615,176.109043 C237.738385,176.757979 215.050332,181.949468 212.457412,181.300532 C209.864491,180.651596 154.764934,181.300532 154.764934,181.300532 L154.116704,174.81117 L157.357854,167.672872 Z" id="Shape" fill="#F8BDC5" fill-rule="nonzero"></path>
                <path d="M121.056969,151.449468 L155.413164,182.598404 C155.413164,182.598404 161.895465,169.619681 163.840155,169.619681 C165.784845,169.619681 140.503872,131.332447 140.503872,131.332447 C140.503872,131.332447 134.021571,123.545213 130.13219,127.43883 C126.24281,131.332447 114.574668,128.736702 121.056969,151.449468 Z" id="Shape" fill="#000000" fill-rule="nonzero" opacity="0.1"></path>
                <path d="M120.408739,150.151596 L154.764934,181.300532 C154.764934,181.300532 161.247235,168.321809 163.191925,168.321809 C165.136615,168.321809 139.855642,130.034574 139.855642,130.034574 C139.855642,130.034574 133.373341,122.24734 129.48396,126.140957 C125.59458,130.034574 113.926438,127.43883 120.408739,150.151596 Z" id="Shape" fill="#EB6475" fill-rule="nonzero"></path>
                <ellipse id="Oval" fill="#F8BDC5" fill-rule="nonzero" cx="148.282633" cy="99.5345745" rx="21.3915929" ry="21.4148936"></ellipse>
                <path d="M166.368252,93.5059574 C169.998341,94.9401064 174.445199,93.2204255 176.584358,89.9562766 C178.723518,86.6921277 178.658695,82.2469149 176.856615,78.7815957 C175.054535,75.3162766 171.722633,72.7984043 168.047168,71.4875532 C165.817257,70.6958511 163.334535,70.2415957 161.623208,68.6062766 C160.540664,67.5744681 159.898916,66.1792553 159.088628,64.9203191 C156.061394,60.1960638 150.661637,57.4056383 145.171128,56.3089362 C139.680619,55.212234 134.002124,55.6015957 128.414381,55.9909574 C126.32708,56.1402128 123.87677,56.5165957 122.930354,58.3855319 C122.223783,59.787234 122.684027,61.4679787 122.593274,63.0319149 C122.301571,68.0092553 116.759204,70.767234 111.916925,71.9612766 C107.074646,73.1553191 101.460973,74.2779787 99.1014159,78.6647872 C96.9881858,82.6038298 98.4985619,87.38 99.1532743,91.8057447 C100.272867,99.5364399 98.599439,107.41334 94.4341593,114.01883 C92.3144469,117.347872 89.5853982,120.307021 87.9064823,123.88266 C86.0492684,127.8784 85.6190522,132.391428 86.6878097,136.666702 C87.0054425,137.919149 87.4527212,139.191064 87.232323,140.462979 C86.9782765,141.508342 86.4756824,142.476778 85.767323,143.285851 C80.0222021,150.644908 71.4324963,155.223844 62.1263717,155.888191 C62.865354,158.672128 65.5555088,160.430745 68.1160177,161.728617 C72.4852031,163.978296 77.0897558,165.736809 81.845531,166.972021 C85.0413053,167.80266 88.3861726,168.393191 91.6402876,167.828617 C94.8944027,167.264043 98.0642478,165.349681 99.4190487,162.325638 C100.196925,160.573511 100.313606,158.594255 101.00073,156.803191 C102.55,152.786277 106.679226,150.359255 108.896173,146.666809 C111.015885,143.136596 111.839137,142.721277 112.377168,138.645957 C112.915199,134.570638 114.10146,130.170851 117.446327,127.776277 C120.94677,125.264894 125.873319,125.745106 129.762699,127.672447 C133.65208,129.599787 136.057013,128.847021 139.304646,131.676383 C145.001834,136.630943 151.378092,140.743641 158.239447,143.889362 C157.591217,138.230638 156.547566,131.916489 151.958097,128.548511 C150.661637,127.581596 149.021615,126.841809 148.334491,125.362234 C147.238982,123.006596 149.112367,120.131809 148.263186,117.67234 C147.414004,115.212872 144.185819,114.304362 142.75323,112.072021 C141.534558,110.177128 141.865155,107.600851 143.00604,105.654043 C144.146925,103.707234 145.949004,102.266596 147.744602,100.90383 C149.339248,99.6968085 150.955501,98.5179078 152.593363,97.3671277 C154.073384,96.4269229 155.402267,95.2672599 156.534602,93.927766 C157.182832,93.0387234 157.610664,91.0919149 158.511704,90.4624468 C160.780509,88.8920213 164.267987,92.6818085 166.368252,93.5059574 Z" id="Shape" fill="#916168" fill-rule="nonzero"></path>
                <g id="Group" opacity="0.1" transform="translate(189.931416, 286.265957)" fill="#FFFFFF" fill-rule="nonzero">
                    <path d="M22.4352434,5.27585106 C22.4839585,3.54850371 22.7319311,1.83258022 23.1742257,0.162234043 L22.8501106,0.272553191 C22.5266007,1.91971397 22.387453,3.59783542 22.4352434,5.27585106 Z" id="Shape"></path>
                    <path d="M25.767146,29.3643617 C20.5813053,29.6693617 4.3755531,22.2260638 1.13440265,18.3324468 C0.708753471,17.8051673 0.447271817,17.1642907 0.382455752,16.4894681 C0.190304125,17.595411 0.462347707,18.7317258 1.13440265,19.6303191 C4.3755531,23.5239362 20.5813053,30.967234 25.767146,30.662234 C31.2771018,30.337766 49.7516593,31.3111702 50.3998894,22.875 C50.4482725,22.642035 50.4162783,22.3995293 50.3091372,22.1871277 C48.8246903,29.961383 31.1409735,29.046383 25.767146,29.3643617 Z" id="Shape"></path>
                </g>
                <rect id="Rectangle-path" stroke="#FFAB50" stroke-width="0.25" fill="#F4D738" fill-rule="nonzero" x="241.30365" y="121.922872" width="1" height="26.606383"></rect>
                <rect id="Rectangle-path" stroke="#FFAB50" stroke-width="0.25" fill="#F4D738" fill-rule="nonzero" x="241.951881" y="121.922872" width="1" height="26.606383"></rect>
                <rect id="Rectangle-path" stroke="#FFAB50" stroke-width="0.25" fill="#F4D738" fill-rule="nonzero" x="242.600111" y="121.922872" width="1" height="26.606383"></rect>
                <rect id="Rectangle-path" stroke="#FFAB50" stroke-width="0.25" fill="#F4D738" fill-rule="nonzero" x="243.248341" y="121.922872" width="1" height="26.606383"></rect>
                <rect id="Rectangle-path" stroke="#FFAB50" stroke-width="0.25" fill="#F4D738" fill-rule="nonzero" x="243.896571" y="121.922872" width="1" height="26.606383"></rect>
                <rect id="Rectangle-path" stroke="#FFAB50" stroke-width="0.25" fill="#F4D738" fill-rule="nonzero" x="244.544801" y="121.922872" width="1" height="26.606383"></rect>
                <rect id="Rectangle-path" stroke="#FFAB50" stroke-width="0.25" fill="#F4D738" fill-rule="nonzero" x="245.193031" y="121.922872" width="1" height="26.606383"></rect>
            </g>
        </g>
    </g>
</svg>