<svg viewBox="0 0 556 377" xmlns="http://www.w3.org/2000/svg"><g fill="none" fill-rule="evenodd"><ellipse fill="#220052" fill-rule="nonzero" opacity=".08" cx="41.402" cy="263.923" rx="29.17" ry="10.383"/><ellipse fill="#220052" fill-rule="nonzero" opacity=".08" cx="512.653" cy="306.85" rx="29.17" ry="10.383"/><path d="M343.715 10.553c-39.17 15.146-81.628 15.85-121.066 1.592-55.894-20.202-128.89-25.372-155.94 67.2-46.164 158.16 48.282 214.613 48.282 214.613s65.938 14.797 102.448 41.532c51.861 37.975 115.374 50.67 175.203 32.861 38.26-11.389 71.052-30.073 80.427-60.644 26.22-85.502 9.575-136.893 57.027-159.437 47.451-22.543 21.049-106.058-12.698-107.953-33.747-1.895-113.253 17.476-137.848-21.055-8.769-13.68-22.182-13.994-35.835-8.709z" fill="#FB2F51" fill-rule="nonzero" opacity=".04"/><path d="M511.473 308.323s7.779-26.502-1.465-46.01a41.904 41.904 0 0 1-3.384-26.262 70.46 70.46 0 0 1 3.715-12.33" stroke="#220052" stroke-width="2"/><path d="M504.582 211.398c0 3.245 5.873 12.667 5.873 12.667s5.873-9.416 5.873-12.667a5.88 5.88 0 0 0-5.876-5.882 5.88 5.88 0 0 0-5.876 5.882h.006zM494.872 229.393c1.763 2.726 11.81 7.437 11.81 7.437s-.18-11.103-1.944-13.829a5.871 5.871 0 0 0-10.16.52 5.885 5.885 0 0 0 .3 5.872h-.006zM495.293 260.133c2.898 1.46 13.944.455 13.944.455s-5.757-9.494-8.654-10.954a5.87 5.87 0 0 0-7.89 2.602 5.883 5.883 0 0 0 2.6 7.897zM500.848 283.326c2.593 1.947 13.665 2.804 13.665 2.804s-4.07-10.331-6.677-12.259a5.87 5.87 0 0 0-8.216 1.23 5.885 5.885 0 0 0 1.228 8.225zM519.012 237.46c-2.327 2.264-13.172 4.607-13.172 4.607s2.658-10.779 4.985-13.044a5.87 5.87 0 0 1 8.307.12 5.886 5.886 0 0 1-.12 8.316zM525.164 264.656c-2.898 1.46-13.944.455-13.944.455s5.756-9.494 8.654-10.922a5.87 5.87 0 0 1 7.889 2.602 5.883 5.883 0 0 1-2.6 7.898v-.033zM527.517 291.918c-2.593 1.947-13.665 2.804-13.665 2.804s4.07-10.331 6.677-12.259a5.87 5.87 0 0 1 8.216 1.23 5.885 5.885 0 0 1-1.228 8.225z" fill="#00C79B" fill-rule="nonzero"/><path d="M41.415 264.001s16.653-56.535-3.111-98.197c-8.297-17.476-11.02-37.087-7.215-56.049a150.377 150.377 0 0 1 7.928-26.308" stroke="#220052" stroke-width="2"/><path d="M26.72 57.133c0 6.93 12.537 27.035 12.537 27.035s12.53-20.117 12.53-27.035c0-6.931-5.613-12.55-12.537-12.55s-12.536 5.619-12.536 12.55h.006zM5.996 95.53c3.766 5.841 25.203 15.874 25.203 15.874s-.389-23.7-4.155-29.514c-3.832-5.633-11.454-7.176-17.17-3.475-5.717 3.702-7.438 11.294-3.878 17.103v.013zM6.897 161.151c6.184 3.121 29.76.967 29.76.967s-12.316-20.26-18.468-23.362c-4-2.02-8.771-1.749-12.518.709a12.556 12.556 0 0 0-5.646 11.207 12.552 12.552 0 0 0 6.872 10.499v-.02zM18.727 210.645c5.569 4.121 29.17 5.984 29.17 5.984s-8.686-22.064-14.26-26.165c-5.567-4.122-13.418-2.945-17.535 2.628-4.117 5.573-2.942 13.432 2.625 17.553zM57.524 112.721c-4.966 4.828-28.107 9.831-28.107 9.831s5.665-23.01 10.63-27.839c4.968-4.838 12.913-4.73 17.746.243 4.833 4.973 4.724 12.927-.243 17.765h-.026zM70.65 170.807c-6.184 3.122-29.76.967-29.76.967s12.317-20.26 18.468-23.362c4-2.019 8.772-1.749 12.519.709a12.556 12.556 0 0 1 5.646 11.207 12.552 12.552 0 0 1-6.872 10.499v-.02zM75.674 228.99c-5.568 4.122-29.17 5.984-29.17 5.984s8.686-22.064 14.261-26.165c5.567-4.122 13.418-2.945 17.535 2.628 4.117 5.573 2.941 13.432-2.626 17.554z" fill="#00C79B" fill-rule="nonzero"/><path d="M245.776 124.545l-36.125-4.686c-1.465-.188-2.593-.746-2.554-1.233.064-.486 1.296-.714 2.793-.5l36.048 5.225c.992.142 1.744.519 1.699.85-.046.311-.875.473-1.86.344zM246.003 125.161l-36.236-3.75c-1.471-.15-2.722.123-2.768.61-.045.486 1.128.999 2.593 1.128l36.301 3.245c.998.09 1.815-.104 1.848-.435.026-.35-.746-.694-1.738-.798zM300.364 152.449l36.12-4.685c1.464-.189 2.592-.747 2.553-1.233-.065-.487-1.296-.714-2.794-.5l-36.048 5.224c-.991.143-1.743.519-1.698.85.045.311.875.474 1.867.344zM300.13 153.065l36.237-3.75c1.471-.15 2.722.123 2.768.61.045.486-1.128.999-2.593 1.129l-36.301 3.244c-.999.091-1.815-.104-1.848-.434-.026-.35.746-.695 1.738-.799z" fill="#220052" fill-rule="nonzero"/><path fill="#40414D" fill-rule="nonzero" d="M172.066 191.288h8.809V317.74h-8.809zM364.474 191.288h8.809V317.74h-8.809z"/><path d="M168.702 180.996h203.544c7.876 0 14.261 6.391 14.261 14.276v1.895H154.441v-1.895c0-7.885 6.385-14.276 14.26-14.276z" fill="#DFE6F5" fill-rule="nonzero"/><path d="M168.054 180.996h203.544c7.876 0 14.261 6.391 14.261 14.276v1.895H153.793v-1.895c0-7.885 6.384-14.276 14.26-14.276z" fill="#000" fill-rule="nonzero" opacity=".1"/><path d="M168.702 178.05h203.544c7.876 0 14.261 6.391 14.261 14.276v1.895H154.441v-1.895c0-7.885 6.385-14.277 14.26-14.277z" fill="#DFE6F5" fill-rule="nonzero"/><ellipse stroke="#FFAB50" fill="#F4D738" fill-rule="nonzero" cx="270.474" cy="150.113" rx="17.625" ry="17.645"/><ellipse stroke="#FFAB50" fill="#F4D738" fill-rule="nonzero" cx="270.474" cy="150.113" rx="13.969" ry="13.985"/><ellipse stroke="#FFAB50" fill="#F4D738" fill-rule="nonzero" cx="270.474" cy="150.113" rx="10.644" ry="10.656"/><ellipse stroke="#FFAB50" fill="#F4D738" fill-rule="nonzero" cx="270.474" cy="150.113" rx="5.983" ry="5.99"/><ellipse stroke="#FFAB50" fill="#F4D738" fill-rule="nonzero" cx="260.193" cy="159.671" rx="17.625" ry="17.645"/><ellipse stroke="#FFAB50" fill="#F4D738" fill-rule="nonzero" cx="260.193" cy="159.671" rx="13.969" ry="13.985"/><ellipse stroke="#FFAB50" fill="#F4D738" fill-rule="nonzero" cx="260.193" cy="159.671" rx="10.644" ry="10.656"/><ellipse stroke="#FFAB50" fill="#F4D738" fill-rule="nonzero" cx="260.193" cy="159.671" rx="5.983" ry="5.99"/><ellipse stroke="#FFAB50" fill="#F4D738" fill-rule="nonzero" cx="280.755" cy="159.671" rx="17.625" ry="17.645"/><ellipse stroke="#FFAB50" fill="#F4D738" fill-rule="nonzero" cx="280.755" cy="159.671" rx="13.969" ry="13.985"/><ellipse stroke="#FFAB50" fill="#F4D738" fill-rule="nonzero" cx="280.755" cy="159.671" rx="10.644" ry="10.656"/><ellipse stroke="#FFAB50" fill="#F4D738" fill-rule="nonzero" cx="280.755" cy="159.671" rx="5.983" ry="5.99"/><path d="M233.752 154.532h73.438v3.452a25.972 25.972 0 0 1-7.595 18.355 25.915 25.915 0 0 1-18.334 7.603h-21.58c-14.32 0-25.93-11.622-25.93-25.958v-3.452z" fill="#220052" fill-rule="nonzero"/><path d="M300.565 154.525c-.398 15.947-13.424 28.668-29.358 28.67h-14.58c2.128.487 4.302.735 6.483.74H277.8a29.362 29.362 0 0 0 20.782-8.61 29.426 29.426 0 0 0 8.609-20.8h-6.625z" fill="#000" fill-rule="nonzero" opacity=".1"/><path fill="#40414D" fill-rule="nonzero" d="M368.986 287.601v8.81h-191.15v-8.81zM98.641 256.798h7.707V327h-7.707zM159.516 256.798h7.707V327h-7.707z"/><path d="M173.395 245.227c0 4.686-15.869 8.488-35.445 8.488-19.577 0-34.674-3.796-34.674-8.488s15.097-8.488 34.674-8.488c19.576 0 35.445 3.822 35.445 8.488z" fill="#F6C6CD" fill-rule="nonzero"/><path d="M92.477 245.22h80.912v7.074a6.81 6.81 0 0 1-6.807 6.814h-62.437c-6.444 0-11.668-5.23-11.668-11.68v-2.207z" fill="#40414D" fill-rule="nonzero"/><path d="M78.725 164.052l1.669-.377a4.54 4.54 0 0 1 5.426 3.432l20.23 89.622-2.529.57c-4.421.999-8.815-1.78-9.814-6.206l-18.421-81.608a4.545 4.545 0 0 1 .593-3.431 4.535 4.535 0 0 1 2.846-2.002zM443.597 328.245h-7.707v-70.202h7.707zM382.722 328.245h-7.707v-70.202h7.707z" fill="#40414D" fill-rule="nonzero"/><path d="M368.856 246.473c0 4.686 15.869 8.488 35.445 8.488 19.577 0 34.674-3.796 34.674-8.488s-15.104-8.507-34.674-8.507-35.445 3.822-35.445 8.507z" fill="#F6C6CD" fill-rule="nonzero"/><path d="M438.093 260.36h-62.437a6.81 6.81 0 0 1-6.807-6.813v-7.074h80.912v2.207c0 6.45-5.224 11.68-11.668 11.68z" fill="#40414D" fill-rule="nonzero"/><path d="M438.728 258.545l-2.529-.57 20.233-89.635a4.54 4.54 0 0 1 5.426-3.432l1.67.377a4.54 4.54 0 0 1 3.426 5.43l-18.424 81.62c-.998 4.421-5.384 7.2-9.802 6.21z" fill="#40414D" fill-rule="nonzero"/><path d="M390.163 294.65s1.718 18.93-6.878 21.227c-8.595 2.297-.57 11.473 6.301 9.734 6.872-1.74 32.094-10.902 33.812-24.66 1.718-13.757-17.191-18.358-17.191-18.358l-16.044 12.057z" fill="#B8616E" fill-rule="nonzero"/><path d="M390.163 294.65s1.718 18.93-6.878 21.227c-8.595 2.297-.57 11.473 6.301 9.734 6.872-1.74 32.094-10.902 33.812-24.66 1.718-13.757-17.191-18.358-17.191-18.358l-16.044 12.057z" fill="#000" fill-rule="nonzero" opacity=".05"/><path d="M393.618 295.221s1.718 18.93-6.877 21.227c-8.596 2.297-.57 11.473 6.3 9.734 6.872-1.74 32.094-10.902 33.812-24.66 1.718-13.757-17.191-18.358-17.191-18.358l-16.044 12.057z" fill="#B8616E" fill-rule="nonzero"/><path d="M411.38 283.748l-16.031 12.05s.071.818.117 2.123c6.054-1.661 19.246-6.074 19.447-12.979a31.04 31.04 0 0 0-3.533-1.194z" fill="#000" fill-rule="nonzero" opacity=".1"/><path fill="#F8BDC5" fill-rule="nonzero" d="M394.474 118.808h6.878v5.166h-6.878z"/><path d="M394.766 202.274s-10.923 8.592-19.895 10.63a66.175 66.175 0 0 0-15.395 5.392l-20.633 10.5a12.55 12.55 0 0 0-6.833 9.883c-.59 5.84 1.757 13.524 15.759 18.093l44.125 36.717 13.755-11.474-46.99-36.132 36.107-22.376v-21.233z" fill="#758AC8" fill-rule="nonzero"/><path d="M394.766 202.274s-10.923 8.592-19.895 10.63a66.175 66.175 0 0 0-15.395 5.392l-20.633 10.5a12.55 12.55 0 0 0-6.833 9.883c-.59 5.84 1.757 13.524 15.759 18.093l44.125 36.717 13.755-11.474-46.99-36.132 36.107-22.376v-21.233z" fill="#000" fill-rule="nonzero" opacity=".1"/><path d="M388.458 163.844s-21.203.571-36.106-10.902c-14.903-11.473-31.517-8.034-28.081-1.149 3.435 6.886 21.203 12.622 24.068 13.193 2.866.571 44.125 12.051 44.125 12.051l-4.006-13.193z" fill="#F8BDC5" fill-rule="nonzero"/><path d="M388.458 163.844s-21.203.571-36.106-10.902c-14.903-11.473-31.517-8.034-28.081-1.149 3.435 6.886 21.203 12.622 24.068 13.193 2.866.571 44.125 12.051 44.125 12.051l-4.006-13.193z" fill="#000" fill-rule="nonzero" opacity=".05"/><path d="M390.753 197.122l-6.878 20.655s-38.68 23.81-41.836 26.964c-2.45 2.453-5.73 12.05 5.73 20.078 11.46 8.027 42.978 33.277 42.978 33.277s24.068-5.191 22.35-14.925l-39.541-28.683s17.19-14.926 34.959-12.622c17.768 2.303 20.633-1.149 20.633-1.149s13.755-13.783 9.166-26.957c-4.59-13.173-47.56-16.638-47.56-16.638z" fill="#758AC8" fill-rule="nonzero"/><path d="M382.158 103.636s19.485 21.227 18.338 27.534c-1.147 6.308 15.473-18.358 15.473-18.358s-5.186-12.622-4.012-26.392l-29.8 17.216z" fill="#F8BDC5" fill-rule="nonzero"/><path d="M399.16 123.104a56.993 56.993 0 0 1 4.195-4.004 58.184 58.184 0 0 0 8.031-8.027c4.013-5.192 18.91 17.21 18.91 17.21s9.165 10.324 8.024 34.997c-1.14 24.672 1.433 57.658 1.433 57.658l-3.468.966a19.837 19.837 0 0 1-17.567-2.498c-4.577-3.167-10.372-6.49-14.78-6.788-8.595-.57-16.335-5.45-16.335-5.45s3.727-8.891-2.003-37.58c-5.73-28.69 8.874-49.08 8.874-49.08s1.154 6.243 4.687 2.596z" fill="#000" fill-rule="nonzero" opacity=".1"/><path d="M441.756 218.348l-3.436 1.149-2.042.681a19.83 19.83 0 0 1-17.567-2.498c-4.57-3.16-10.371-6.49-14.78-6.788-8.582-.578-18.305-6.885-18.305-6.885s5.73-7.456 0-36.146 8.88-49.053 8.88-49.053 1.154 6.21 4.687 2.557a56.3 56.3 0 0 1 4.188-3.998 58.184 58.184 0 0 0 8.031-8.027c4.013-5.191 18.91 17.21 18.91 17.21s9.165 10.324 8.024 34.997c-.123 2.596-.175 5.27-.181 7.975-.085 23.09 3.59 48.826 3.59 48.826z" fill="#5E52AD" fill-rule="nonzero"/><path d="M409.092 162.124l.57 12.622s-30.376 1.72-36.677-4.588c-6.3-6.307 17.178 18.553 22.364 20.078 4.868 1.435 17.437 2.7 24.03 2.83a9.722 9.722 0 0 0 9.075-5.51 9.191 9.191 0 0 0 .713-5.353c-1.147-7.457 0-23.524 0-23.524l-20.075 3.445z" fill="#000" fill-rule="nonzero" opacity=".1"/><path d="M409.092 160.976l.57 12.622s-30.376 1.72-36.677-4.588c-6.3-6.308-29.099-4.913-28.652 0 .286 3.154 15.474 13.193 24.633 13.77 9.16.578 21.197 4.783 26.383 6.308 4.868 1.434 17.437 2.7 24.03 2.83a9.722 9.722 0 0 0 9.075-5.51 9.191 9.191 0 0 0 .713-5.354c-1.147-7.456 0-23.524 0-23.524l-20.075 3.446z" fill="#F8BDC5" fill-rule="nonzero"/><path d="M415.97 124.259s-13.18 1.72-11.461 21.227c1.717 19.507 4.012 21.226 4.012 21.226s19.486-1.72 21.774-2.297c2.288-.577 1.147-21.798 1.147-21.798s-.576-18.929-15.473-18.358z" fill="#000" fill-rule="nonzero" opacity=".1"/><path d="M415.97 123.688s-13.18 1.72-11.461 21.227c1.717 19.507 4.012 21.226 4.012 21.226s19.486-1.72 21.774-2.297c2.288-.577 1.147-21.798 1.147-21.798s-.576-18.942-15.473-18.358z" fill="#5E52AD" fill-rule="nonzero"/><path d="M411.095 98.73c-.901-4.543.946-5.944 1.432-11.759l-29.818 17.21s3.416 3.725 7.299 8.508c1.735.439 3.519.657 5.309.648 7.81.033 12.083-8.364 15.778-14.607z" fill="#000" fill-rule="nonzero" opacity=".1"/><ellipse fill="#F8BDC5" fill-rule="nonzero" cx="394.759" cy="91.559" rx="21.204" ry="21.227"/><path d="M400.107 84.538c-3.241 2.063-3.286 6.73-1.2 9.96 2.088 3.233 5.686 5.368 9.147 7.38 1.005.583 2.114 1.187 3.242 1.057a4.776 4.776 0 0 0 2.32-1.175 80.057 80.057 0 0 0 6.923-6.08c3.15-3.102 6.178-6.924 5.685-11.253-.557-4.912-5.406-8.611-7.364-13.264-1.646-3.894-1.153-8.26-2.593-12.239-1.439-3.978-6.482-7.657-10.255-5.574-1.393.766-2.236 2.135-3.403 3.167-2.89 2.556-7.552 2.81-11.506 1.641-3.954-1.168-5.127-5.937-10.644-5.95 2.742.967 4.596 3.828 4.175 6.437-2.21 1.253-5.115.539-7.779.493-2.664-.045-5.834 1.447-5.374 3.848.402 1.947 3.209 3.394 2.794 5.341a43.89 43.89 0 0 1-15.648 4.802c-.992.11 5.957 5.893 6.748 6.276 2.897 1.388 6.378 2.407 9.445 3.471 8.33 2.882 16.86 3.888 25.287 1.662z" fill="#916168" fill-rule="nonzero"/><path d="M425.356 293.054c.92 2.124 1.24 4.461.927 6.755-1.718 13.77-26.934 22.947-33.812 24.66-3.624.908-7.571-1.214-9.224-3.764 1.063 2.998 5.64 5.95 9.8 4.912 6.879-1.72 32.095-10.902 33.813-24.66a12.607 12.607 0 0 0-1.504-7.903z" fill="#FFF" fill-rule="nonzero" opacity=".1"/><path d="M195.603 292.269s-7.778 9.734-4.537 13.627c3.241 3.894 19.447 11.337 24.633 11.032 5.51-.324 23.984.65 24.632-7.787 0 0 1.297-3.894-15.557-4.543s-11.668-18.17-11.668-18.17l-17.503 5.84z" fill="#220052" fill-rule="nonzero"/><path d="M102.907 210.503s-7.78 26.606 15.557 31.149l25.281-1.298s35.653-7.139 45.376-1.947c0 0 3.89.649 2.593 5.84-1.296 5.192 1.945 40.234 1.945 40.234v11.681s22.04 0 24.632-2.596c0 0-1.944-10.382 0-18.819 1.945-8.436-3.24-35.042-3.24-35.042l-.513-16.016a11.137 11.137 0 0 0-5.873-9.604 8.679 8.679 0 0 0-3.98-1.013s-44.08-7.138-59.637-5.84c-15.558 1.298-42.141 3.27-42.141 3.27z" fill="#000" fill-rule="nonzero" opacity=".1"/><path d="M102.907 209.854s-7.78 26.606 15.557 31.149l25.281-1.298s35.653-7.139 45.376-1.947c0 0 3.89.649 2.593 5.84-1.296 5.192 1.945 40.234 1.945 40.234v11.681s22.04 0 24.632-2.595c0 0-1.944-10.383 0-18.82 1.945-8.436-3.24-35.042-3.24-35.042l-.513-16.016a11.137 11.137 0 0 0-5.873-9.604 8.679 8.679 0 0 0-3.98-1.012s-44.08-7.139-59.637-5.84c-15.558 1.297-42.141 3.27-42.141 3.27z" fill="#8B9CD1" fill-rule="nonzero"/><path d="M169.674 157.29s5.186 6.49 8.427 0c3.241-6.49 10.372-27.904 10.372-27.904s17.502-18.82 23.336-12.98c5.834 5.841-14.26 16.224-14.26 16.224s-7.131 39.585-13.614 40.234c-6.482.65-16.205 0-16.205 0l-3.242-7.138 5.186-8.436z" fill="#F8BDC5" fill-rule="nonzero"/><path d="M169.674 157.29s5.186 6.49 8.427 0c3.241-6.49 10.372-27.904 10.372-27.904s17.502-18.82 23.336-12.98c5.834 5.841-14.26 16.224-14.26 16.224s-7.131 39.585-13.614 40.234c-6.482.65-16.205 0-16.205 0l-3.242-7.138 5.186-8.436z" fill="#000" fill-rule="nonzero" opacity=".05"/><path d="M146.338 124.843s11.668 13.628 12.965 18.17c1.296 4.543 15.557 16.224 15.557 16.224s-10.372 7.787-8.427 11.68c1.945 3.894-13.613-12.978-13.613-12.978l-18.15-26.607 11.668-6.489z" fill="#EB6475" fill-rule="nonzero"/><path d="M146.338 124.843s11.668 13.628 12.965 18.17c1.296 4.543 15.557 16.224 15.557 16.224s-10.372 7.787-8.427 11.68c1.945 3.894-13.613-12.978-13.613-12.978l-18.15-26.607 11.668-6.489z" fill="#000" fill-rule="nonzero" opacity=".1"/><path d="M154.117 109.269s-5.834 18.819-5.834 25.957c0 7.138-24.633-1.947-23.985-5.84.648-3.894 14.261-18.17 14.91-24.011.648-5.84 14.909 3.894 14.909 3.894z" fill="#F8BDC5" fill-rule="nonzero"/><path d="M134.67 122.247s-22.688-5.84-25.93 27.256c-3.24 33.095 2.594 36.989-7.13 57.106-9.723 20.117 66.12 2.596 66.12 2.596s-3.89-4.543-16.206-2.596l-5.834-17.521s-1.945-7.787 9.075-7.787 5.834-22.713 5.834-22.713-5.834-19.468-9.075-21.415c-3.241-1.947-9.075-13.628-16.854-14.926z" fill="#000" fill-rule="nonzero" opacity=".1"/><path d="M134.67 120.95s-22.688-5.841-25.93 27.255c-3.24 33.096 2.594 36.99-7.13 57.106-9.723 20.117 66.12 2.596 66.12 2.596s-3.89-4.543-16.206-2.596l-5.834-17.521s-1.945-7.787 9.075-7.787 5.834-22.713 5.834-22.713-5.834-19.468-9.075-21.415c-3.241-1.947-9.075-13.628-16.854-14.926z" fill="#EB6475" fill-rule="nonzero"/><path d="M157.358 167.673s47.32 5.191 55.1 3.893c0 0 34.745-4.282 25.929 4.543-.649.649-23.337 5.84-25.93 5.192-2.593-.65-57.692 0-57.692 0l-.648-6.49 3.24-7.138z" fill="#F8BDC5" fill-rule="nonzero"/><path d="M121.057 151.45l34.356 31.148s6.482-12.978 8.427-12.978c1.945 0-23.336-38.288-23.336-38.288s-6.482-7.787-10.372-3.893c-3.89 3.893-15.557 1.298-9.075 24.01z" fill="#000" fill-rule="nonzero" opacity=".1"/><path d="M120.409 150.152l34.356 31.149s6.482-12.98 8.427-12.98c1.945 0-23.336-38.286-23.336-38.286s-6.483-7.788-10.372-3.894c-3.89 3.894-15.558 1.298-9.075 24.01z" fill="#EB6475" fill-rule="nonzero"/><ellipse fill="#F8BDC5" fill-rule="nonzero" cx="148.283" cy="99.535" rx="21.392" ry="21.415"/><path d="M166.368 93.506c3.63 1.434 8.077-.286 10.216-3.55 2.14-3.264 2.075-7.71.273-11.174-1.802-3.466-5.134-5.984-8.81-7.294-2.23-.792-4.712-1.246-6.424-2.882-1.082-1.032-1.724-2.427-2.534-3.686-3.028-4.724-8.427-7.514-13.918-8.611-5.49-1.097-11.169-.707-16.757-.318-2.087.15-4.537.526-5.484 2.395-.706 1.401-.246 3.082-.337 4.646-.291 4.977-5.834 7.735-10.676 8.93-4.842 1.193-10.456 2.316-12.816 6.703-2.113 3.939-.602 8.715.052 13.14a32.826 32.826 0 0 1-4.719 22.214c-2.12 3.329-4.849 6.288-6.528 9.864a19.254 19.254 0 0 0-1.218 12.784c.317 1.252.765 2.524.544 3.796a6.68 6.68 0 0 1-1.465 2.823 32.972 32.972 0 0 1-23.64 12.602c.738 2.784 3.429 4.543 5.989 5.84a66.522 66.522 0 0 0 13.73 5.244c3.195.83 6.54 1.421 9.794.857 3.254-.565 6.424-2.48 7.779-5.503.778-1.752.895-3.732 1.582-5.523 1.549-4.017 5.678-6.444 7.895-10.136 2.12-3.53 2.943-3.946 3.481-8.021.538-4.075 1.724-8.475 5.07-10.87 3.5-2.511 8.426-2.03 12.316-.104 3.89 1.928 6.294 1.175 9.542 4.004a79.074 79.074 0 0 0 18.934 12.213c-.648-5.658-1.691-11.973-6.28-15.34-1.297-.967-2.937-1.707-3.625-3.187-1.095-2.355.778-5.23-.07-7.69-.85-2.46-4.078-3.368-5.51-5.6-1.22-1.895-.889-4.471.252-6.418 1.14-1.947 2.943-3.387 4.739-4.75a169.341 169.341 0 0 1 4.848-3.537c1.48-.94 2.81-2.1 3.942-3.44.648-.888 1.076-2.835 1.977-3.465 2.269-1.57 5.756 2.22 7.856 3.044z" fill="#916168" fill-rule="nonzero"/><g opacity=".1" fill="#FFF" fill-rule="nonzero"><path d="M212.367 291.542a22.45 22.45 0 0 1 .739-5.114l-.324.11a22.62 22.62 0 0 0-.415 5.004zM215.699 315.63c-5.186.305-21.392-7.138-24.633-11.032a3.46 3.46 0 0 1-.752-1.843 4.079 4.079 0 0 0 .752 3.141c3.241 3.894 19.447 11.337 24.633 11.032 5.51-.324 23.984.65 24.632-7.787a1.052 1.052 0 0 0-.09-.688c-1.485 7.774-19.169 6.86-24.542 7.177z"/></g><path stroke="#FFAB50" stroke-width=".25" fill="#F4D738" fill-rule="nonzero" d="M241.304 121.923h1v26.606h-1z"/><path stroke="#FFAB50" stroke-width=".25" fill="#F4D738" fill-rule="nonzero" d="M241.952 121.923h1v26.606h-1z"/><path stroke="#FFAB50" stroke-width=".25" fill="#F4D738" fill-rule="nonzero" d="M242.6 121.923h1v26.606h-1z"/><path stroke="#FFAB50" stroke-width=".25" fill="#F4D738" fill-rule="nonzero" d="M243.248 121.923h1v26.606h-1z"/><path stroke="#FFAB50" stroke-width=".25" fill="#F4D738" fill-rule="nonzero" d="M243.897 121.923h1v26.606h-1z"/><path stroke="#FFAB50" stroke-width=".25" fill="#F4D738" fill-rule="nonzero" d="M244.545 121.923h1v26.606h-1z"/><path stroke="#FFAB50" stroke-width=".25" fill="#F4D738" fill-rule="nonzero" d="M245.193 121.923h1v26.606h-1z"/></g></svg>
